<svg width="79" height="45" viewBox="0 0 79 45" fill="none" xmlns="http://www.w3.org/2000/svg">
<path d="M5.52734 20H2.19922L4.40234 7.32031H7.73047L5.52734 20Z" fill="#323B43"/>
<path d="M13.5664 7.30859L13.2852 8.80859C14.3008 7.62891 15.5312 7.05469 16.9766 7.08594C18.1719 7.10938 19.0547 7.54688 19.625 8.39844C20.1953 9.25 20.4023 10.4297 20.2461 11.9375L18.9102 20H15.6055L16.9648 11.9023C17.0039 11.5977 17.0117 11.3203 16.9883 11.0703C16.8867 10.2734 16.3867 9.86328 15.4883 9.83984C14.6211 9.80859 13.8438 10.2109 13.1562 11.0469L11.5742 20H8.26953L10.4727 7.32031L13.5664 7.30859Z" fill="#323B43"/>
<path d="M28.8594 16.4258C28.9844 15.8008 28.5508 15.3477 27.5586 15.0664L26.4922 14.7969C23.9688 14.1016 22.7422 12.875 22.8125 11.1172C22.8516 9.92188 23.3789 8.94922 24.3945 8.19922C25.418 7.44141 26.6484 7.07031 28.0859 7.08594C29.5156 7.10156 30.6719 7.48047 31.5547 8.22266C32.4375 8.96484 32.8867 9.95312 32.9023 11.1875L29.6211 11.1758C29.6367 10.0898 29.0977 9.53906 28.0039 9.52344C27.4883 9.52344 27.0391 9.65234 26.6562 9.91016C26.2812 10.168 26.0508 10.5156 25.9648 10.9531C25.8477 11.5781 26.3203 12.0195 27.3828 12.2773L27.8516 12.3828C28.9297 12.6406 29.7539 12.9375 30.3242 13.2734C30.8945 13.6016 31.332 14.0117 31.6367 14.5039C31.9492 14.9961 32.0938 15.5859 32.0703 16.2734C32.0469 17.0781 31.7852 17.7813 31.2852 18.3828C30.793 18.9844 30.1133 19.4492 29.2461 19.7773C28.3867 20.1055 27.4805 20.2578 26.5273 20.2344C25.1211 20.2188 23.9492 19.8164 23.0117 19.0273C22.0742 18.2305 21.5977 17.2031 21.582 15.9453L24.6992 15.9688C24.7305 17.1797 25.3789 17.793 26.6445 17.8086C27.2539 17.8086 27.7539 17.6836 28.1445 17.4336C28.543 17.1836 28.7812 16.8477 28.8594 16.4258Z" fill="#323B43"/>
<path d="M40.3086 4.20312L39.7578 7.32031H41.8672L41.4336 9.80469H39.3242L38.2461 16.1562C38.1992 16.5547 38.2305 16.8594 38.3398 17.0703C38.4492 17.2812 38.7148 17.3945 39.1367 17.4102C39.2617 17.418 39.5977 17.3984 40.1445 17.3516L39.9102 19.9414C39.3242 20.1367 38.6914 20.2266 38.0117 20.2109C36.9258 20.1953 36.1172 19.8555 35.5859 19.1914C35.0547 18.5273 34.8359 17.6289 34.9297 16.4961L36.0195 9.80469H34.2266L34.6602 7.32031H36.4531L36.9922 4.20312H40.3086Z" fill="#323B43"/>
<path d="M48.9336 20C48.832 19.6797 48.7891 19.2969 48.8047 18.8516C47.8516 19.8047 46.7734 20.2656 45.5703 20.2344C44.4609 20.2188 43.5391 19.8594 42.8047 19.1563C42.0781 18.4453 41.7383 17.5703 41.7852 16.5312C41.8398 15.1484 42.418 14.0898 43.5195 13.3555C44.6289 12.6133 46.1133 12.2422 47.9727 12.2422L49.5195 12.2656L49.6836 11.5039C49.7305 11.2461 49.7422 11 49.7188 10.7656C49.6797 10.3984 49.5391 10.1133 49.2969 9.91016C49.0625 9.69922 48.75 9.58984 48.3594 9.58203C47.8438 9.56641 47.4062 9.69531 47.0469 9.96875C46.6875 10.2344 46.457 10.6211 46.3555 11.1289L43.0391 11.1406C43.0938 9.92969 43.6484 8.94922 44.7031 8.19922C45.7656 7.44141 47.0742 7.07031 48.6289 7.08594C50.0664 7.11719 51.1914 7.54688 52.0039 8.375C52.8164 9.19531 53.1562 10.2539 53.0234 11.5508L52.0508 17.6211L51.9922 18.3711C51.9766 18.9258 52.043 19.3945 52.1914 19.7773L52.1797 20H48.9336ZM46.3906 17.668C47.3438 17.6992 48.1758 17.2852 48.8867 16.4258L49.2969 14.2344L48.1484 14.2227C46.9297 14.2539 46.0508 14.625 45.5117 15.3359C45.3164 15.5938 45.1953 15.9102 45.1484 16.2852C45.0859 16.707 45.1719 17.043 45.4062 17.293C45.6484 17.5352 45.9766 17.6602 46.3906 17.668Z" fill="#323B43"/>
<circle cx="6.5" cy="2.5" r="2.5" fill="#323B43"/>
<g filter="url(#filter0_d)">
<circle cx="6.50004" cy="2.91667" r="1.66667" fill="#76B852"/>
</g>
<path d="M44.7969 35.2539C44.6862 36.237 44.3509 37.1094 43.791 37.8711C43.2311 38.6263 42.502 39.209 41.6035 39.6191C40.7051 40.0228 39.735 40.2148 38.6934 40.1953C37.7559 40.1758 36.9388 39.9609 36.2422 39.5508C35.5456 39.1341 34.9954 38.5352 34.5918 37.7539C34.1947 36.9661 33.9701 36.0612 33.918 35.0391C33.8724 34.2383 33.9538 33.2422 34.1621 32.0508C34.377 30.8594 34.7546 29.8014 35.2949 28.877C35.8418 27.9525 36.4896 27.2201 37.2383 26.6797C38.293 25.9245 39.4974 25.5599 40.8516 25.5859C42.3229 25.612 43.4883 26.0677 44.3477 26.9531C45.2135 27.832 45.6888 29.056 45.7734 30.625L42.9219 30.6152C42.9219 29.7168 42.7428 29.0592 42.3848 28.6426C42.0267 28.2259 41.4701 28.0046 40.7148 27.9785C39.7383 27.946 38.9342 28.2943 38.3027 29.0234C37.6777 29.7526 37.2578 30.8171 37.043 32.2168C36.8346 33.5775 36.7435 34.5964 36.7695 35.2734C36.8021 36.1328 36.9941 36.7676 37.3457 37.1777C37.6973 37.5814 38.1888 37.793 38.8203 37.8125C39.6927 37.8451 40.3893 37.64 40.9102 37.1973C41.4375 36.748 41.7858 36.1068 41.9551 35.2734L44.7969 35.2539ZM51.8672 29.2383C52.7982 29.2513 53.599 29.4922 54.2695 29.9609C54.9466 30.4232 55.4414 31.0645 55.7539 31.8848C56.0729 32.6986 56.1868 33.6035 56.0957 34.5996C55.946 36.2793 55.36 37.64 54.3379 38.6816C53.3223 39.7168 52.0658 40.2214 50.5684 40.1953C49.6504 40.1823 48.8561 39.9479 48.1855 39.4922C47.515 39.0299 47.0202 38.3919 46.7012 37.5781C46.3822 36.7643 46.2682 35.8659 46.3594 34.8828C46.5286 33.138 47.1211 31.7513 48.1367 30.7227C49.1523 29.694 50.3958 29.1992 51.8672 29.2383ZM49.084 35.8887C49.097 36.5137 49.2435 37.0085 49.5234 37.373C49.8034 37.7311 50.1973 37.9167 50.7051 37.9297C51.5514 37.9557 52.2155 37.5684 52.6973 36.7676C53.179 35.9603 53.4036 34.9023 53.3711 33.5938C53.3451 32.9688 53.1921 32.4707 52.9121 32.0996C52.6387 31.722 52.2448 31.5267 51.7305 31.5137C50.9102 31.4876 50.2526 31.875 49.7578 32.6758C49.2695 33.4701 49.0449 34.541 49.084 35.8887ZM62.1406 29.2285C63.1237 29.2546 63.918 29.6484 64.5234 30.4102L65.5586 25H68.3223L65.7246 40H63.2637L63.4199 38.8672C62.6322 39.7852 61.7142 40.2311 60.666 40.2051C60.0085 40.1986 59.4323 40.026 58.9375 39.6875C58.4427 39.349 58.0586 38.8639 57.7852 38.2324C57.5182 37.5944 57.3717 36.8848 57.3457 36.1035C57.3262 35.6934 57.3359 35.2962 57.375 34.9121L57.4336 34.4727C57.5898 33.3919 57.8893 32.4414 58.332 31.6211C58.7812 30.8008 59.3281 30.1921 59.9727 29.7949C60.6237 29.3978 61.3464 29.209 62.1406 29.2285ZM60.1387 34.9121C60.0866 35.4069 60.0703 35.8236 60.0898 36.1621C60.1549 37.3079 60.6172 37.8906 61.4766 37.9102C62.2513 37.9427 62.9251 37.5781 63.498 36.8164L64.25 32.6172C63.9961 31.9206 63.4883 31.556 62.7266 31.5234C62.056 31.5039 61.4961 31.7643 61.0469 32.3047C60.6042 32.8385 60.3014 33.7077 60.1387 34.9121ZM72.9512 40.1953C72.0267 40.1888 71.2064 39.9642 70.4902 39.5215C69.7806 39.0723 69.25 38.4603 68.8984 37.6855C68.5469 36.9043 68.4102 36.0449 68.4883 35.1074L68.5176 34.7168C68.6152 33.6882 68.9147 32.7441 69.416 31.8848C69.9173 31.0254 70.5618 30.3646 71.3496 29.9023C72.1374 29.4336 73.0098 29.2122 73.9668 29.2383C75.3275 29.2643 76.3561 29.7656 77.0527 30.7422C77.7559 31.7122 78.0228 32.9427 77.8535 34.4336L77.6973 35.6348H71.2227C71.1966 36.3184 71.3626 36.8652 71.7207 37.2754C72.0788 37.6855 72.5671 37.8971 73.1855 37.9102C74.1882 37.9362 75.0671 37.5488 75.8223 36.748L77.082 38.3105C76.6849 38.9095 76.112 39.3783 75.3633 39.7168C74.6146 40.0488 73.8105 40.2083 72.9512 40.1953ZM73.8301 31.5137C73.3223 31.5007 72.8698 31.6602 72.4727 31.9922C72.082 32.3242 71.7305 32.9004 71.418 33.7207H75.207L75.2656 33.4668C75.3047 33.2064 75.3079 32.959 75.2754 32.7246C75.2103 32.347 75.0508 32.054 74.7969 31.8457C74.543 31.6309 74.2207 31.5202 73.8301 31.5137Z" fill="#323B43"/>
<path d="M30.8838 39.3105H17.9053L18.4912 36H31.4551L30.8838 39.3105Z" fill="#76B852"/>
<path d="M30.8838 39.3105V40.3105H31.726L31.8692 39.4806L30.8838 39.3105ZM17.9053 39.3105L16.9206 39.1363L16.7127 40.3105H17.9053V39.3105ZM18.4912 36V35H17.6527L17.5065 35.8257L18.4912 36ZM31.4551 36L32.4405 36.1701L32.6424 35H31.4551V36ZM30.8838 38.3105H17.9053V40.3105H30.8838V38.3105ZM18.89 39.4848L19.4759 36.1743L17.5065 35.8257L16.9206 39.1363L18.89 39.4848ZM18.4912 37H31.4551V35H18.4912V37ZM30.4696 35.8299L29.8984 39.1405L31.8692 39.4806L32.4405 36.1701L30.4696 35.8299Z" fill="#323B42"/>
<defs>
<filter id="filter0_d" x="0.833374" y="1.25" width="11.3333" height="11.3333" filterUnits="userSpaceOnUse" color-interpolation-filters="sRGB">
<feFlood flood-opacity="0" result="BackgroundImageFix"/>
<feColorMatrix in="SourceAlpha" type="matrix" values="0 0 0 0 0 0 0 0 0 0 0 0 0 0 0 0 0 0 127 0"/>
<feOffset dy="4"/>
<feGaussianBlur stdDeviation="2"/>
<feColorMatrix type="matrix" values="0 0 0 0 0 0 0 0 0 0 0 0 0 0 0 0 0 0 0.25 0"/>
<feBlend mode="normal" in2="BackgroundImageFix" result="effect1_dropShadow"/>
<feBlend mode="normal" in="SourceGraphic" in2="effect1_dropShadow" result="shape"/>
</filter>
</defs>
</svg>
